<?xml version="1.0" encoding="UTF-8"?>
<rss version="2.0" xmlns:atom="http://www.w3.org/2005/Atom" xmlns:content="http://purl.org/rss/1.0/modules/content/">
<channel>
<title>PT剧集RSS</title>
<link>https://liuhangbj.github.io/pt-rss</link>
<description>PT剧集RSS - 生成时间: 2026-05-15 00:49:52 | 保留最近7天</description>
<lastBuildDate>Fri, 15 May 2026 00:49:52 +0800</lastBuildDate>
<language>zh-CN</language>
<item>
<title>[已拥有] [第八个家族 全5集] The Eighth Family S01 2025 HDR 2160p WEB-DL DDP 5.1 H.265-EDITH[第八个家族 全5集][28.58 GB][anonymous]</title>
<link>https://hdhome.org/details.php?id=292250</link>
<guid isPermaLink="false">7904b9de1b3acc7d7bdda35263d582d957bac4db</guid>
<pubDate>Thu, 14 May 2026 23:39:42 +0800</pubDate>
<source>hdhome</source>
<enclosure url="https://hdhome.org/download.php?id=292250" type="application/x-bittorrent" />
<description><![CDATA[<p><b>🔗 来源:</b> hdhome</p>
<p><b>📅 发布时间:</b> Thu, 14 May 2026 23:39:42 +0800</p>
<p><b>⬇️ 详情:</b> <a href="https://hdhome.org/details.php?id=292250">https://hdhome.org/details.php?id=292250</a></p><hr/><p><b>📄 原文内容:</b></p>
<div><img alt="image" src="https://img2.pixhost.to/images/6698/708025727_doubaninfo_com_37844375.jpg" /><br />
◎片　　名　第八个家族<br />
◎译　　名　Sekizinci Aile<br />
◎年　　代　2025<br />
◎产　　地　土耳其<br />
◎类　　别　剧情 / 喜剧<br />
◎语　　言　土耳其语<br />
◎上映日期　2025-11-19(土耳其)<br />
◎IMDb评分 &nbsp;5.5/10 (2027 人评价)<br />
◎IMDb链接 &nbsp;<a class="faqlink" href="https://www.imdb.com/title/tt38781098/">https://www.imdb.com/title/tt38781098/</a><br />
◎豆瓣链接　<a class="faqlink" href="https://movie.douban.com/subject/37844375/">https://movie.douban.com/subject/37844375/</a><br />
◎集　　数　5<br />
◎季　　数　1<br />
◎片　　长　40分钟<br />
◎导　　演　阿里·阿泰 Ali Atay<br />
◎编　　剧　阿里·阿泰 Ali Atay / 吉汉·塔莱 Cihan Talay<br />
◎主　　演　哈鲁克·比尔根纳尔 Haluk Bilginer<br />
　　　　　　赫再拉.卡亚 Hazal Kaya<br />
　　　　　　厄康·吉赛尔 Ercan Kesal<br />
　　　　　　莫蒙特·奥兹古尔 Mehmet Özgür<br />
　　　　　　梅丽莎·丹格尔 Melisa Döngel<br />
　　　　　　阿里·阿泰 Ali Atay<br />
　　　　　　埃尔登姆·塞诺卡克 Erdem Senocak<br />
　　　　　　塞尔坎·凯斯金 Serkan Keskin<br />
　　　　　　卡格拉·乔鲁穆卢 Çaglar Çorumlu<br />
　　　　　　吉汉·塔莱 Cihan Talay<br />
　　　　　　阿尔珀·拜泰金 Alper Baytekin<br />
<br />
◎简　　介<br />
<br />
 &nbsp; With their invention of bulletproof thermal underwear, the Basmacıgil Family earns the title of the Eighth Family, one of the ruling forces of the world. Yet, as six very different siblings attempt to run the family business, their well-meaning but ineffective efforts leave their father Erol convinced that “no outside enemy is necessary.&quot;<br />
<br />
 &nbsp; &nbsp; <br />
<br />
 &nbsp;<br />
<fieldset><legend> 引用 </legend>General<br />
Unique ID &nbsp; &nbsp; &nbsp; &nbsp; &nbsp; &nbsp; &nbsp; &nbsp; &nbsp; &nbsp; &nbsp; &nbsp; &nbsp; &nbsp; &nbsp; &nbsp;: 230950434950325681959397709822090230964 (0xADBF6F92D14E91BA9ACAC3A5F99B3CB4)<br />
Complete name &nbsp; &nbsp; &nbsp; &nbsp; &nbsp; &nbsp; &nbsp; &nbsp; &nbsp; &nbsp; &nbsp; &nbsp; &nbsp; &nbsp;: The.Eighth.Family.S01E01.HDR.2160p.WEB.h265-EDITH.mkv<br />
Format &nbsp; &nbsp; &nbsp; &nbsp; &nbsp; &nbsp; &nbsp; &nbsp; &nbsp; &nbsp; &nbsp; &nbsp; &nbsp; &nbsp; &nbsp; &nbsp; &nbsp; : Matroska<br />
Format version &nbsp; &nbsp; &nbsp; &nbsp; &nbsp; &nbsp; &nbsp; &nbsp; &nbsp; &nbsp; &nbsp; &nbsp; &nbsp; : Version 4<br />
File size &nbsp; &nbsp; &nbsp; &nbsp; &nbsp; &nbsp; &nbsp; &nbsp; &nbsp; &nbsp; &nbsp; &nbsp; &nbsp; &nbsp; &nbsp; &nbsp;: 3.50 GiB<br />
Duration &nbsp; &nbsp; &nbsp; &nbsp; &nbsp; &nbsp; &nbsp; &nbsp; &nbsp; &nbsp; &nbsp; &nbsp; &nbsp; &nbsp; &nbsp; &nbsp; : 42 min 36 s<br />
Overall bit rate &nbsp; &nbsp; &nbsp; &nbsp; &nbsp; &nbsp; &nbsp; &nbsp; &nbsp; &nbsp; &nbsp; &nbsp; : 11.7 Mb/s<br />
Frame rate &nbsp; &nbsp; &nbsp; &nbsp; &nbsp; &nbsp; &nbsp; &nbsp; &nbsp; &nbsp; &nbsp; &nbsp; &nbsp; &nbsp; &nbsp; : 24.000 FPS<br />
Writing application &nbsp; &nbsp; &nbsp; &nbsp; &nbsp; &nbsp; &nbsp; &nbsp; &nbsp; &nbsp; &nbsp;: mkvmerge 95.0 (&#039;Goodbye Stranger&#039;) 64-bit<br />
Writing library &nbsp; &nbsp; &nbsp; &nbsp; &nbsp; &nbsp; &nbsp; &nbsp; &nbsp; &nbsp; &nbsp; &nbsp; &nbsp;: libebml v1.4.5 + libmatroska v1.7.1<br />
<br />
Video<br />
ID &nbsp; &nbsp; &nbsp; &nbsp; &nbsp; &nbsp; &nbsp; &nbsp; &nbsp; &nbsp; &nbsp; &nbsp; &nbsp; &nbsp; &nbsp; &nbsp; &nbsp; &nbsp; &nbsp; : 1<br />
Format &nbsp; &nbsp; &nbsp; &nbsp; &nbsp; &nbsp; &nbsp; &nbsp; &nbsp; &nbsp; &nbsp; &nbsp; &nbsp; &nbsp; &nbsp; &nbsp; &nbsp; : HEVC<br />
Format/Info &nbsp; &nbsp; &nbsp; &nbsp; &nbsp; &nbsp; &nbsp; &nbsp; &nbsp; &nbsp; &nbsp; &nbsp; &nbsp; &nbsp; &nbsp;: High Efficiency Video Coding<br />
Format profile &nbsp; &nbsp; &nbsp; &nbsp; &nbsp; &nbsp; &nbsp; &nbsp; &nbsp; &nbsp; &nbsp; &nbsp; &nbsp; : Main 10@L5@High<br />
HDR format &nbsp; &nbsp; &nbsp; &nbsp; &nbsp; &nbsp; &nbsp; &nbsp; &nbsp; &nbsp; &nbsp; &nbsp; &nbsp; &nbsp; &nbsp; : SMPTE ST 2086, HDR10 compatible<br />
Codec ID &nbsp; &nbsp; &nbsp; &nbsp; &nbsp; &nbsp; &nbsp; &nbsp; &nbsp; &nbsp; &nbsp; &nbsp; &nbsp; &nbsp; &nbsp; &nbsp; : V_MPEGH/ISO/HEVC<br />
Duration &nbsp; &nbsp; &nbsp; &nbsp; &nbsp; &nbsp; &nbsp; &nbsp; &nbsp; &nbsp; &nbsp; &nbsp; &nbsp; &nbsp; &nbsp; &nbsp; : 42 min 36 s<br />
Bit rate &nbsp; &nbsp; &nbsp; &nbsp; &nbsp; &nbsp; &nbsp; &nbsp; &nbsp; &nbsp; &nbsp; &nbsp; &nbsp; &nbsp; &nbsp; &nbsp; : 11.2 Mb/s<br />
Width &nbsp; &nbsp; &nbsp; &nbsp; &nbsp; &nbsp; &nbsp; &nbsp; &nbsp; &nbsp; &nbsp; &nbsp; &nbsp; &nbsp; &nbsp; &nbsp; &nbsp; &nbsp;: 3 840 pixels<br />
Height &nbsp; &nbsp; &nbsp; &nbsp; &nbsp; &nbsp; &nbsp; &nbsp; &nbsp; &nbsp; &nbsp; &nbsp; &nbsp; &nbsp; &nbsp; &nbsp; &nbsp; : 2 160 pixels<br />
Display aspect ratio &nbsp; &nbsp; &nbsp; &nbsp; &nbsp; &nbsp; &nbsp; &nbsp; &nbsp; &nbsp; : 16:9<br />
Frame rate mode &nbsp; &nbsp; &nbsp; &nbsp; &nbsp; &nbsp; &nbsp; &nbsp; &nbsp; &nbsp; &nbsp; &nbsp; &nbsp;: Constant<br />
Frame rate &nbsp; &nbsp; &nbsp; &nbsp; &nbsp; &nbsp; &nbsp; &nbsp; &nbsp; &nbsp; &nbsp; &nbsp; &nbsp; &nbsp; &nbsp; : 24.000 FPS<br />
Color space &nbsp; &nbsp; &nbsp; &nbsp; &nbsp; &nbsp; &nbsp; &nbsp; &nbsp; &nbsp; &nbsp; &nbsp; &nbsp; &nbsp; &nbsp;:...</div>]]></description>
</item>
<item>
<title>[未监控] [LOL: Last One Laughing Netherlands 第四季 全6集] LOL Last One Laughing Netherlands S04 2023 1080p WEB-DL DDP 5.1 H.264-EDITH[LOL: Last One Laughing Netherlands 第四季 全6集][13.44 GB][anonymous]</title>
<link>https://hdhome.org/details.php?id=292255</link>
<guid isPermaLink="false">64b45bd1272108f210cd40680dd77e2ec7c970aa</guid>
<pubDate>Thu, 14 May 2026 23:51:51 +0800</pubDate>
<source>hdhome</source>
<enclosure url="https://hdhome.org/download.php?id=292255" type="application/x-bittorrent" />
<description><![CDATA[<p><b>🔗 来源:</b> hdhome</p>
<p><b>📅 发布时间:</b> Thu, 14 May 2026 23:51:51 +0800</p>
<p><b>⬇️ 详情:</b> <a href="https://hdhome.org/details.php?id=292255">https://hdhome.org/details.php?id=292255</a></p><hr/><p><b>📄 原文内容:</b></p>
<div><img alt="image" src="https://img2.pixhost.to/images/7896/726303379_bfrfevadqowqd5z7xbheqbwavtg.jpg" /><br />
◎片　　名　LOL: Last One Laughing Netherlands 第四季<br />
◎年　　代　2023<br />
◎产　　地　荷兰<br />
◎类　　型　真人秀<br />
◎IMDb评分  6.9 / 10 from 561 users<br />
◎IMDb链接  <a class="faqlink" href="https://www.imdb.com/title/tt25755694/">https://www.imdb.com/title/tt25755694/</a><br />
◎演　　员　Philippe Geubels / Jeroom Snelders / Ruben van der Meer / Bas Hoeflaak / Leo Alkemade / Henry van Loon / Rayen Panday / Bram Krikke / Jennifer Hoffman / Tina de Bruin / Arjan Ederveen / Plien van Bennekom / Bianca Krijgsman / Nienke Plas / Roué Verveer / Alex Ploeg / Soundos El Ahmadi / Gover Meit<br />
<br />
◎简　　介　<br />
<br />
　　In &#039;LOL: Last One Laughing,&#039; comedians are forbidden to laugh as Philippe Geubels and Jeroom Snelders challenge ten Dutch comics to keep a straight face while trying to make each other laugh.<br />
<br />
 &nbsp; &nbsp; <br />
<br />
 &nbsp;<br />
<fieldset><legend> 引用 </legend>General<br />
Unique ID : 217143608008980810978521568757698258852 (0xA35C5672D4AB45FBB2D4057F06D3E7A4)<br />
Complete name : LOL.Last.One.Laughing.Netherlands.S04E01.1080p.WEB.h264-EDITH.mkv<br />
Format : Matroska<br />
Format version : Version 4<br />
File size : 2.26 GiB<br />
Duration : 34 min 48 s<br />
Overall bit rate : 9 306 kb/s<br />
Frame rate : 25.000 FPS<br />
Writing application : mkvmerge v95.0 (&#039;Goodbye Stranger&#039;) 64-bit<br />
Writing library : libebml v1.4.5 + libmatroska v1.7.1<br />
<br />
Video<br />
ID : 1<br />
Format : AVC<br />
Format/Info : Advanced Video Codec<br />
Format profile : High@L4<br />
Format settings : CABAC / 4 Ref Frames<br />
Format settings, CABAC : Yes<br />
Format settings, Reference frames : 4 frames<br />
Codec ID : V_MPEG4/ISO/AVC<br />
Duration : 34 min 48 s<br />
Bit rate mode : Constant<br />
Bit rate : 8 663 kb/s<br />
Nominal bit rate : 10 000 kb/s<br />
Width : 1 920 pixels<br />
Height : 1 080 pixels<br />
Display aspect ratio : 16:9<br />
Frame rate mode : Constant<br />
Frame rate : 25.000 FPS<br />
Color space : YUV<br />
Chroma subsampling : 4:2:0<br />
Bit depth : 8 bits<br />
Scan type : Progressive<br />
Bits/(Pixel*Frame) : 0.167<br />
Stream size : 2.11 GiB (93%)<br />
Default : Yes<br />
Forced : No<br />
Color range : Limited<br />
Color primaries : BT.709<br />
Transfer characteristics : BT.709<br />
Matrix coefficients : BT.709<br />
<br />
Audio<br />
ID : 2<br />
Format : E-AC-3<br />
Format/Info : Enhanced AC-3<br />
Commercial name : Dolby Digital Plus<br />
Codec ID : A_EAC3<br />
Duration : 34 min 48 s<br />
Bit rate mode : Constant<br />
Bit rate : 640 kb/s<br />
Channel(s) : 6 channels<br />
Channel layout : L R C LFE Ls Rs<br />
Sampling rate : 48.0 kHz<br />
Frame rate : 31.250 FPS (1536 SPF)<br />
Compression mode : Lossy<br />
Stream size : 159 MiB (7%)<br />
Language : Dutch<br />
Service kind : Complete Main<br />
Default : Yes<br />
Forced : No<br />
<br />
Text #1<br />
ID : 3<br />
Format : UTF-8<br />
Codec ID : S_TEXT/UTF8<br />
Codec ID/Info : UTF-8 Plain Text<br />
Duration : 33 min 50 s<br />
Bit rate : 80 b/s<br />
Frame rate : 0.283 FPS<br />
Count of elements : 575<br />
Stream size : 19.9 KiB (0%)<br />
Title : English<br />
Language : English<br />
Default : Yes<br />
Forced : Yes<br />
<br />
Text #2<br />
ID : 4<br />
Format : UTF-8<br />
Codec ID : S_TEXT/UTF8<br />
Codec ID/Info : UTF-8 Plain Text<br />
Duration : 20 min 15 s<br />
Bit rate : 0 b/s<br />
Frame rate : 0.002 FPS<br />
Count of elements : 3<br />
Stream size : 51.0 Bytes (0%)<br />
Title : Nederlands (forced)<br />
Language : Dutch<br />
Default : No<br />
Forced : No<br />
<br />
Text #3<br />
ID : 5<br />
Format : UTF-8<br />
Codec ID : S_TEXT/UTF8<br />
Codec ID/Info : UTF-8 Plain Text<br />
Duration : 33 min 55 s<br />
Bit rate : 111 b/s<br />
Frame rate : 0.312 FPS<br />
Count of elements : 634<br />
Stream size : 27.6 KiB (0%)<br />
Title : Nederlands (SDH)<br />
Language : Dutch<br />
Default : No<br />
Forced : No<br />
<br />
Text #4<br />
ID : 6<br />
Format : UTF-8<br />
Codec ID : S_TEXT/UTF8<br />
Codec ID/Info : UTF-8 Plain Text<br />
Duration : 34 min 41 s<br />
Bit rate : 81 b/s<br />
Frame rate : 0.276 FPS<br />
Count of elements : 574<br />
Stream size : 20.7 KiB (0%)<br />
Title : Deutsch<br />
Language : German<br />
Default : No<br />
Forced : No<br />
<br />
Text #5<br />
ID : 7<br />
Format : UTF-8<br />
Codec ID : S_TEXT/UTF8<br />
Codec ID/Info : UTF-8 Plain Text<br />
Duration : 34 min 41 s<br />
Bit rate : 76 b/s<br />
Frame rate : 0.276 FPS<br />
Count of elements : 575<br />
Stream size : 19.5 KiB (0%)<br />
Title : Français<br />
Language : French<br />
Default : No<br />
Forced : No</fieldset><br />
 &nbsp;<br />
<a class="faqlink" href="https://imgbox.com/QH3Qp938"><img alt=...</div>]]></description>
</item>
<item>
<title>[未监控] [LOL: Last One Laughing Netherlands 第三季 全6集] LOL Last One Laughing Netherlands S03 2023 1080p WEB-DL DDP 5.1 H.264-BTN[LOL: Last One Laughing Netherlands 第三季 全6集][13.74 GB][anonymous]</title>
<link>https://hdhome.org/details.php?id=292254</link>
<guid isPermaLink="false">bd4051f4b304c9075049e67cf72cfbc39f111594</guid>
<pubDate>Thu, 14 May 2026 23:50:30 +0800</pubDate>
<source>hdhome</source>
<enclosure url="https://hdhome.org/download.php?id=292254" type="application/x-bittorrent" />
<description><![CDATA[<p><b>🔗 来源:</b> hdhome</p>
<p><b>📅 发布时间:</b> Thu, 14 May 2026 23:50:30 +0800</p>
<p><b>⬇️ 详情:</b> <a href="https://hdhome.org/details.php?id=292254">https://hdhome.org/details.php?id=292254</a></p><hr/><p><b>📄 原文内容:</b></p>
<div><img alt="image" src="https://img2.pixhost.to/images/7896/726303379_bfrfevadqowqd5z7xbheqbwavtg.jpg" /><br />
◎片　　名　LOL: Last One Laughing Netherlands 第三季<br />
◎年　　代　2023<br />
◎产　　地　荷兰<br />
◎类　　型　真人秀<br />
◎IMDb评分  6.9 / 10 from 561 users<br />
◎IMDb链接  <a class="faqlink" href="https://www.imdb.com/title/tt25755694/">https://www.imdb.com/title/tt25755694/</a><br />
◎演　　员　Philippe Geubels / Jeroom Snelders / Ruben van der Meer / Bas Hoeflaak / Leo Alkemade / Henry van Loon / Rayen Panday / Bram Krikke / Jennifer Hoffman / Tina de Bruin / Arjan Ederveen / Plien van Bennekom / Bianca Krijgsman / Nienke Plas / Roué Verveer / Alex Ploeg / Soundos El Ahmadi / Gover Meit<br />
<br />
◎简　　介　<br />
<br />
　　In &#039;LOL: Last One Laughing,&#039; comedians are forbidden to laugh as Philippe Geubels and Jeroom Snelders challenge ten Dutch comics to keep a straight face while trying to make each other laugh.<br />
<br />
 &nbsp; &nbsp; <br />
<br />
 &nbsp;<br />
<fieldset><legend> 引用 </legend>General<br />
Unique ID &nbsp; &nbsp; &nbsp; &nbsp; &nbsp; &nbsp; &nbsp; &nbsp; &nbsp; &nbsp; &nbsp; &nbsp; &nbsp; &nbsp; &nbsp; &nbsp;: 329637972861716048173879956142815314529 (0xF7FDF6DAABAC9801F2CD06488F020261)<br />
Complete name &nbsp; &nbsp; &nbsp; &nbsp; &nbsp; &nbsp; &nbsp; &nbsp; &nbsp; &nbsp; &nbsp; &nbsp; &nbsp; &nbsp;: LOL.Last.One.Laughing.Netherlands.S03E01.1080p.WEB.h264-EDITH.mkv<br />
Format &nbsp; &nbsp; &nbsp; &nbsp; &nbsp; &nbsp; &nbsp; &nbsp; &nbsp; &nbsp; &nbsp; &nbsp; &nbsp; &nbsp; &nbsp; &nbsp; &nbsp; : Matroska<br />
Format version &nbsp; &nbsp; &nbsp; &nbsp; &nbsp; &nbsp; &nbsp; &nbsp; &nbsp; &nbsp; &nbsp; &nbsp; &nbsp; : Version 4<br />
File size &nbsp; &nbsp; &nbsp; &nbsp; &nbsp; &nbsp; &nbsp; &nbsp; &nbsp; &nbsp; &nbsp; &nbsp; &nbsp; &nbsp; &nbsp; &nbsp;: 2.39 GiB<br />
Duration &nbsp; &nbsp; &nbsp; &nbsp; &nbsp; &nbsp; &nbsp; &nbsp; &nbsp; &nbsp; &nbsp; &nbsp; &nbsp; &nbsp; &nbsp; &nbsp; : 35 min 13 s<br />
Overall bit rate &nbsp; &nbsp; &nbsp; &nbsp; &nbsp; &nbsp; &nbsp; &nbsp; &nbsp; &nbsp; &nbsp; &nbsp; : 9 713 kb/s<br />
Frame rate &nbsp; &nbsp; &nbsp; &nbsp; &nbsp; &nbsp; &nbsp; &nbsp; &nbsp; &nbsp; &nbsp; &nbsp; &nbsp; &nbsp; &nbsp; : 25.000 FPS<br />
Writing application &nbsp; &nbsp; &nbsp; &nbsp; &nbsp; &nbsp; &nbsp; &nbsp; &nbsp; &nbsp; &nbsp;: mkvmerge v74.0.0 (&#039;You Oughta Know&#039;) 64-bit<br />
Writing library &nbsp; &nbsp; &nbsp; &nbsp; &nbsp; &nbsp; &nbsp; &nbsp; &nbsp; &nbsp; &nbsp; &nbsp; &nbsp;: libebml v1.4.4 + libmatroska v1.7.1<br />
<br />
Video<br />
ID &nbsp; &nbsp; &nbsp; &nbsp; &nbsp; &nbsp; &nbsp; &nbsp; &nbsp; &nbsp; &nbsp; &nbsp; &nbsp; &nbsp; &nbsp; &nbsp; &nbsp; &nbsp; &nbsp; : 1<br />
Format &nbsp; &nbsp; &nbsp; &nbsp; &nbsp; &nbsp; &nbsp; &nbsp; &nbsp; &nbsp; &nbsp; &nbsp; &nbsp; &nbsp; &nbsp; &nbsp; &nbsp; : AVC<br />
Format/Info &nbsp; &nbsp; &nbsp; &nbsp; &nbsp; &nbsp; &nbsp; &nbsp; &nbsp; &nbsp; &nbsp; &nbsp; &nbsp; &nbsp; &nbsp;: Advanced Video Codec<br />
Format profile &nbsp; &nbsp; &nbsp; &nbsp; &nbsp; &nbsp; &nbsp; &nbsp; &nbsp; &nbsp; &nbsp; &nbsp; &nbsp; : High@L4<br />
Format settings &nbsp; &nbsp; &nbsp; &nbsp; &nbsp; &nbsp; &nbsp; &nbsp; &nbsp; &nbsp; &nbsp; &nbsp; &nbsp;: CABAC / 4 Ref Frames<br />
Format settings, CABAC &nbsp; &nbsp; &nbsp; &nbsp; &nbsp; &nbsp; &nbsp; &nbsp; &nbsp; : Yes<br />
Format settings, Reference frames &nbsp; &nbsp; &nbsp; &nbsp;: 4 frames<br />
Codec ID &nbsp; &nbsp; &nbsp; &nbsp; &nbsp; &nbsp; &nbsp; &nbsp; &nbsp; &nbsp; &nbsp; &nbsp; &nbsp; &nbsp; &nbsp; &nbsp; : V_MPEG4/ISO/AVC<br />
Duration &nbsp; &nbsp; &nbsp; &nbsp; &nbsp; &nbsp; &nbsp; &nbsp; &nbsp; &nbsp; &nbsp; &nbsp; &nbsp; &nbsp; &nbsp; &nbsp; : 35 min 13 s<br />
Bit rate mode &nbsp; &nbsp; &nbsp; &nbsp; &nbsp; &nbsp; &nbsp; &nbsp; &nbsp; &nbsp; &nbsp; &nbsp; &nbsp; &nbsp;: Constant<br />
Bit rate &nbsp; &nbsp; &nbsp; &nbsp; &nbsp; &nbsp; &nbsp; &nbsp; &nbsp; &nbsp; &nbsp; &nbsp; &nbsp; &nbsp; &nbsp; &nbsp; : 9 070 kb/s<br />
Nominal bit rate &nbsp; &nbsp; &nbsp; &nbsp; &nbsp; &nbsp; &nbsp; &nbsp; &nbsp; &nbsp; &nbsp; &nbsp; : 10 000 kb/s<br />
Width &nbsp; &nbsp; &nbsp; &nbsp; &nbsp; &nbsp; &nbsp; &nbsp; &nbsp; &nbsp; &nbsp; &nbsp; &nbsp; &nbsp; &nbsp; &nbsp; &nbsp; &nbsp;: 1 920 pixels<br />
Height &nbsp; &nbsp; &nbsp; &nbsp; &nbsp; &nbsp; &nbsp; &nbsp; &nbsp; &nbsp; &nbsp; &nbsp; &nbsp; &nbsp; &nbsp; &nbsp; &nbsp; : 1 080 pixels<br />
Display aspect ratio &nbsp; &nbsp; &nbsp; &nbsp; &nbsp; &nbsp; &nbsp; &nbsp; &nbsp; &nbsp; : 16:9<br />
Frame rate mode &nbsp; &nbsp; &nbsp; &nbsp; &nbsp; &nbsp; &nbsp; &nbsp; &nbsp; &nbsp; &nbsp; &nbsp; &nbsp;: Constant<br />
Frame rate &nbsp; &nbsp; &nbsp; &nbsp; &nbsp; &nbsp; &nbsp; &nbsp; &nbsp; &nbsp; &nbsp; &nbsp; &nbsp; &nbsp; &nbsp; : 25.000 FPS<br />
Color space &nbsp; &nbsp; &nbsp; &nbsp; &nbsp; &nbsp; &nbsp; &nbsp; &nbsp; &nbsp; &nbsp; &nbsp; &nbsp; &nbsp; &nbsp;: YUV<br />
Chroma subsampling &nbsp; &nbsp; &nbsp; &nbsp; &nbsp; &nbsp; &nbsp; &nbsp; &nbsp; &nbsp; &nbsp...</div>]]></description>
</item>
<item>
<title>[未监控] [LOL: Last One Laughing Netherlands 第二季 全6集] LOL Last One Laughing Netherlands S02 2023 1080p WEB-DL DDP 5.1 H.264-EDITH[LOL: Last One Laughing Netherlands 第二季 全6集][13.99 GB][anonymous]</title>
<link>https://hdhome.org/details.php?id=292253</link>
<guid isPermaLink="false">0af9a3709fe035ae97e2c7de5a39112e71c341f8</guid>
<pubDate>Thu, 14 May 2026 23:48:42 +0800</pubDate>
<source>hdhome</source>
<enclosure url="https://hdhome.org/download.php?id=292253" type="application/x-bittorrent" />
<description><![CDATA[<p><b>🔗 来源:</b> hdhome</p>
<p><b>📅 发布时间:</b> Thu, 14 May 2026 23:48:42 +0800</p>
<p><b>⬇️ 详情:</b> <a href="https://hdhome.org/details.php?id=292253">https://hdhome.org/details.php?id=292253</a></p><hr/><p><b>📄 原文内容:</b></p>
<div><img alt="image" src="https://img2.pixhost.to/images/7896/726303379_bfrfevadqowqd5z7xbheqbwavtg.jpg" /><br />
◎片　　名　LOL: Last One Laughing Netherlands 第二季<br />
◎年　　代　2023<br />
◎产　　地　荷兰<br />
◎类　　型　真人秀<br />
◎IMDb评分  6.9 / 10 from 561 users<br />
◎IMDb链接  <a class="faqlink" href="https://www.imdb.com/title/tt25755694/">https://www.imdb.com/title/tt25755694/</a><br />
◎演　　员　Philippe Geubels / Jeroom Snelders / Ruben van der Meer / Bas Hoeflaak / Leo Alkemade / Henry van Loon / Rayen Panday / Bram Krikke / Jennifer Hoffman / Tina de Bruin / Arjan Ederveen / Plien van Bennekom / Bianca Krijgsman / Nienke Plas / Roué Verveer / Alex Ploeg / Soundos El Ahmadi / Gover Meit<br />
<br />
◎简　　介　<br />
<br />
　　In &#039;LOL: Last One Laughing,&#039; comedians are forbidden to laugh as Philippe Geubels and Jeroom Snelders challenge ten Dutch comics to keep a straight face while trying to make each other laugh.<br />
<br />
 &nbsp; &nbsp; <br />
<br />
 &nbsp;<br />
<fieldset><legend> 引用 </legend>General<br />
Unique ID : 67336431780020336625189783759553772898 (0x32A88668741461B8A1D1C777F57B3D62)<br />
Complete name : LOL.Last.One.Laughing.Netherlands.S02E06.1080p.WEB.h264-EDITH.mkv<br />
Format : Matroska<br />
Format version : Version 4<br />
File size : 2.44 GiB<br />
Duration : 35 min 1 s<br />
Overall bit rate : 9 990 kb/s<br />
Frame rate : 25.000 FPS<br />
Writing application : mkvmerge v80.0 (&#039;Roundabout&#039;) 64-bit<br />
Writing library : libebml v1.4.4 + libmatroska v1.7.1<br />
<br />
Video<br />
ID : 1<br />
Format : AVC<br />
Format/Info : Advanced Video Codec<br />
Format profile : High@L4<br />
Format settings : CABAC / 4 Ref Frames<br />
Format settings, CABAC : Yes<br />
Format settings, Reference frames : 4 frames<br />
Codec ID : V_MPEG4/ISO/AVC<br />
Duration : 35 min 1 s<br />
Bit rate mode : Constant<br />
Bit rate : 9 348 kb/s<br />
Nominal bit rate : 10 000 kb/s<br />
Width : 1 920 pixels<br />
Height : 1 080 pixels<br />
Display aspect ratio : 16:9<br />
Frame rate mode : Constant<br />
Frame rate : 25.000 FPS<br />
Color space : YUV<br />
Chroma subsampling : 4:2:0<br />
Bit depth : 8 bits<br />
Scan type : Progressive<br />
Bits/(Pixel*Frame) : 0.180<br />
Stream size : 2.29 GiB (94%)<br />
Default : Yes<br />
Forced : No<br />
Color range : Limited<br />
Color primaries : BT.709<br />
Transfer characteristics : BT.709<br />
Matrix coefficients : BT.709<br />
<br />
Audio<br />
ID : 2<br />
Format : E-AC-3<br />
Format/Info : Enhanced AC-3<br />
Commercial name : Dolby Digital Plus<br />
Codec ID : A_EAC3<br />
Duration : 35 min 1 s<br />
Bit rate mode : Constant<br />
Bit rate : 640 kb/s<br />
Channel(s) : 6 channels<br />
Channel layout : L R C LFE Ls Rs<br />
Sampling rate : 48.0 kHz<br />
Frame rate : 31.250 FPS (1536 SPF)<br />
Compression mode : Lossy<br />
Stream size : 160 MiB (6%)<br />
Language : Dutch<br />
Service kind : Complete Main<br />
Default : Yes<br />
Forced : No<br />
<br />
Text #1<br />
ID : 3<br />
Format : UTF-8<br />
Codec ID : S_TEXT/UTF8<br />
Codec ID/Info : UTF-8 Plain Text<br />
Duration : 34 min 8 s<br />
Bit rate : 58 b/s<br />
Frame rate : 0.244 FPS<br />
Count of elements : 499<br />
Stream size : 14.6 KiB (0%)<br />
Title : English<br />
Language : English<br />
Default : Yes<br />
Forced : Yes<br />
<br />
Text #2<br />
ID : 4<br />
Format : UTF-8<br />
Codec ID : S_TEXT/UTF8<br />
Codec ID/Info : UTF-8 Plain Text<br />
Duration : 33 min 48 s<br />
Bit rate : 0 b/s<br />
Frame rate : 0.003 FPS<br />
Count of elements : 6<br />
Stream size : 120 Bytes (0%)<br />
Title : Nederlands (forced)<br />
Language : Dutch<br />
Default : No<br />
Forced : No<br />
<br />
Text #3<br />
ID : 5<br />
Format : UTF-8<br />
Codec ID : S_TEXT/UTF8<br />
Codec ID/Info : UTF-8 Plain Text<br />
Duration : 34 min 11 s<br />
Bit rate : 103 b/s<br />
Frame rate : 0.310 FPS<br />
Count of elements : 636<br />
Stream size : 26.0 KiB (0%)<br />
Title : Nederlands (SDH)<br />
Language : Dutch<br />
Default : No<br />
Forced : No<br />
<br />
Text #4<br />
ID : 6<br />
Format : UTF-8<br />
Codec ID : S_TEXT/UTF8<br />
Codec ID/Info : UTF-8 Plain Text<br />
Duration : 34 min 55 s<br />
Bit rate : 61 b/s<br />
Frame rate : 0.249 FPS<br />
Count of elements : 521<br />
Stream size : 15.6 KiB (0%)<br />
Title : Deutsch<br />
Language : German<br />
Default : No<br />
Forced : No<br />
<br />
Text #5<br />
ID : 7<br />
Format : UTF-8<br />
Codec ID : S_TEXT/UTF8<br />
Codec ID/Info : UTF-8 Plain Text<br />
Duration : 34 min 55 s<br />
Bit rate : 60 b/s<br />
Frame rate : 0.247 FPS<br />
Count of elements : 517<br />
Stream size : 15.5 KiB (0%)<br />
Title : Français<br />
Language : French<br />
Default : No<br />
Forced : No</fieldset><br />
 &nbsp;<br />
<a class="faqlink" href="https://imgbox.com/v1W4pRlQ"><img alt="image" src=...</div>]]></description>
</item>
<item>
<title>[未监控] [LOL: Last One Laughing Netherlands 第一季 全6集] LOL Last One Laughing NL S01 2023 1080p AMZN WEB-DL DDP 5.1 H.264-YOiNK[LOL: Last One Laughing Netherlands 第一季 全6集][14.54 GB][anonymous]</title>
<link>https://hdhome.org/details.php?id=292252</link>
<guid isPermaLink="false">e706963a68d39050759863ea7446ac5596572a1f</guid>
<pubDate>Thu, 14 May 2026 23:47:28 +0800</pubDate>
<source>hdhome</source>
<enclosure url="https://hdhome.org/download.php?id=292252" type="application/x-bittorrent" />
<description><![CDATA[<p><b>🔗 来源:</b> hdhome</p>
<p><b>📅 发布时间:</b> Thu, 14 May 2026 23:47:28 +0800</p>
<p><b>⬇️ 详情:</b> <a href="https://hdhome.org/details.php?id=292252">https://hdhome.org/details.php?id=292252</a></p><hr/><p><b>📄 原文内容:</b></p>
<div><img alt="image" src="https://img2.pixhost.to/images/7896/726303379_bfrfevadqowqd5z7xbheqbwavtg.jpg" /><br />
◎片　　名　LOL: Last One Laughing Netherlands 第一季<br />
◎年　　代　2023<br />
◎产　　地　荷兰<br />
◎类　　型　真人秀<br />
◎IMDb评分  6.9 / 10 from 561 users<br />
◎IMDb链接  <a class="faqlink" href="https://www.imdb.com/title/tt25755694/">https://www.imdb.com/title/tt25755694/</a><br />
◎演　　员　Philippe Geubels / Jeroom Snelders / Ruben van der Meer / Bas Hoeflaak / Leo Alkemade / Henry van Loon / Rayen Panday / Bram Krikke / Jennifer Hoffman / Tina de Bruin / Arjan Ederveen / Plien van Bennekom / Bianca Krijgsman / Nienke Plas / Roué Verveer / Alex Ploeg / Soundos El Ahmadi / Gover Meit<br />
<br />
◎简　　介　<br />
<br />
　　In &#039;LOL: Last One Laughing,&#039; comedians are forbidden to laugh as Philippe Geubels and Jeroom Snelders challenge ten Dutch comics to keep a straight face while trying to make each other laugh.<br />
<br />
 &nbsp; &nbsp; <br />
<br />
 &nbsp;<br />
<fieldset><legend> 引用 </legend>General<br />
Unique ID &nbsp; &nbsp; &nbsp; &nbsp; &nbsp; &nbsp; &nbsp; &nbsp; &nbsp; &nbsp; &nbsp; &nbsp; &nbsp; &nbsp; &nbsp; &nbsp;: 124665772034166173779999586064849820659 (0x5DC9C11C6E61AEBDA3438AF0E339DBF3)<br />
Complete name &nbsp; &nbsp; &nbsp; &nbsp; &nbsp; &nbsp; &nbsp; &nbsp; &nbsp; &nbsp; &nbsp; &nbsp; &nbsp; &nbsp;: LOL.Last.One.Laughing.NL.S01E01.Its.a.madhouse.1080p.AMZN.WEB-DL.DDP5.1.H.264-YOiNK.mkv<br />
Format &nbsp; &nbsp; &nbsp; &nbsp; &nbsp; &nbsp; &nbsp; &nbsp; &nbsp; &nbsp; &nbsp; &nbsp; &nbsp; &nbsp; &nbsp; &nbsp; &nbsp; : Matroska<br />
Format version &nbsp; &nbsp; &nbsp; &nbsp; &nbsp; &nbsp; &nbsp; &nbsp; &nbsp; &nbsp; &nbsp; &nbsp; &nbsp; : Version 4<br />
File size &nbsp; &nbsp; &nbsp; &nbsp; &nbsp; &nbsp; &nbsp; &nbsp; &nbsp; &nbsp; &nbsp; &nbsp; &nbsp; &nbsp; &nbsp; &nbsp;: 2.52 GiB<br />
Duration &nbsp; &nbsp; &nbsp; &nbsp; &nbsp; &nbsp; &nbsp; &nbsp; &nbsp; &nbsp; &nbsp; &nbsp; &nbsp; &nbsp; &nbsp; &nbsp; : 36 min 22 s<br />
Overall bit rate &nbsp; &nbsp; &nbsp; &nbsp; &nbsp; &nbsp; &nbsp; &nbsp; &nbsp; &nbsp; &nbsp; &nbsp; : 9 935 kb/s<br />
Writing application &nbsp; &nbsp; &nbsp; &nbsp; &nbsp; &nbsp; &nbsp; &nbsp; &nbsp; &nbsp; &nbsp;: mkvmerge v73.0.0 (&#039;25 or 6 to 4&#039;) 64-bit<br />
Writing library &nbsp; &nbsp; &nbsp; &nbsp; &nbsp; &nbsp; &nbsp; &nbsp; &nbsp; &nbsp; &nbsp; &nbsp; &nbsp;: libebml v1.4.4 + libmatroska v1.7.1<br />
<br />
Video<br />
ID &nbsp; &nbsp; &nbsp; &nbsp; &nbsp; &nbsp; &nbsp; &nbsp; &nbsp; &nbsp; &nbsp; &nbsp; &nbsp; &nbsp; &nbsp; &nbsp; &nbsp; &nbsp; &nbsp; : 1<br />
Format &nbsp; &nbsp; &nbsp; &nbsp; &nbsp; &nbsp; &nbsp; &nbsp; &nbsp; &nbsp; &nbsp; &nbsp; &nbsp; &nbsp; &nbsp; &nbsp; &nbsp; : AVC<br />
Format/Info &nbsp; &nbsp; &nbsp; &nbsp; &nbsp; &nbsp; &nbsp; &nbsp; &nbsp; &nbsp; &nbsp; &nbsp; &nbsp; &nbsp; &nbsp;: Advanced Video Codec<br />
Format profile &nbsp; &nbsp; &nbsp; &nbsp; &nbsp; &nbsp; &nbsp; &nbsp; &nbsp; &nbsp; &nbsp; &nbsp; &nbsp; : High@L4<br />
Format settings &nbsp; &nbsp; &nbsp; &nbsp; &nbsp; &nbsp; &nbsp; &nbsp; &nbsp; &nbsp; &nbsp; &nbsp; &nbsp;: CABAC / 4 Ref Frames<br />
Format settings, CABAC &nbsp; &nbsp; &nbsp; &nbsp; &nbsp; &nbsp; &nbsp; &nbsp; &nbsp; : Yes<br />
Format settings, Reference frames &nbsp; &nbsp; &nbsp; &nbsp;: 4 frames<br />
Codec ID &nbsp; &nbsp; &nbsp; &nbsp; &nbsp; &nbsp; &nbsp; &nbsp; &nbsp; &nbsp; &nbsp; &nbsp; &nbsp; &nbsp; &nbsp; &nbsp; : V_MPEG4/ISO/AVC<br />
Duration &nbsp; &nbsp; &nbsp; &nbsp; &nbsp; &nbsp; &nbsp; &nbsp; &nbsp; &nbsp; &nbsp; &nbsp; &nbsp; &nbsp; &nbsp; &nbsp; : 36 min 22 s<br />
Bit rate mode &nbsp; &nbsp; &nbsp; &nbsp; &nbsp; &nbsp; &nbsp; &nbsp; &nbsp; &nbsp; &nbsp; &nbsp; &nbsp; &nbsp;: Constant<br />
Bit rate &nbsp; &nbsp; &nbsp; &nbsp; &nbsp; &nbsp; &nbsp; &nbsp; &nbsp; &nbsp; &nbsp; &nbsp; &nbsp; &nbsp; &nbsp; &nbsp; : 9 290 kb/s<br />
Nominal bit rate &nbsp; &nbsp; &nbsp; &nbsp; &nbsp; &nbsp; &nbsp; &nbsp; &nbsp; &nbsp; &nbsp; &nbsp; : 10 000 kb/s<br />
Width &nbsp; &nbsp; &nbsp; &nbsp; &nbsp; &nbsp; &nbsp; &nbsp; &nbsp; &nbsp; &nbsp; &nbsp; &nbsp; &nbsp; &nbsp; &nbsp; &nbsp; &nbsp;: 1 920 pixels<br />
Height &nbsp; &nbsp; &nbsp; &nbsp; &nbsp; &nbsp; &nbsp; &nbsp; &nbsp; &nbsp; &nbsp; &nbsp; &nbsp; &nbsp; &nbsp; &nbsp; &nbsp; : 1 080 pixels<br />
Display aspect ratio &nbsp; &nbsp; &nbsp; &nbsp; &nbsp; &nbsp; &nbsp; &nbsp; &nbsp; &nbsp; : 16:9<br />
Frame rate mode &nbsp; &nbsp; &nbsp; &nbsp; &nbsp; &nbsp; &nbsp; &nbsp; &nbsp; &nbsp; &nbsp; &nbsp; &nbsp;: Constant<br />
Frame rate &nbsp; &nbsp; &nbsp; &nbsp; &nbsp; &nbsp; &nbsp; &nbsp; &nbsp; &nbsp; &nbsp; &nbsp; &nbsp; &nbsp; &nbsp; : 25.000 FPS<br />
Color space &nbsp; &nbsp; &nbsp; &nbsp; &nbsp; &nbsp; &nbsp; &nbsp; &nbsp; &nbsp; &nbsp; &nbsp; &nbsp; &nbsp; &nbsp;: YUV<br />
Chroma subsampling &nbsp; &nbsp; &nbsp; &nbsp; &nbsp; &nbsp; &nbsp; &nbsp; &nbsp; &nbsp; &nbsp; : 4:2:0<br />
Bit depth &nbsp; &nbsp; &nbsp; &nbsp; &nbsp; &nbsp; &nbsp; &nbsp; &nbsp; &nbsp; &nbsp; &nbsp; &nbsp;...</div>]]></description>
</item>
<item>
<title>[已拥有] [归来记 第三季] The Comeback S03 1080p AMZN WEB-DL DDP 5.1 Atmos H.264-FLUX[归来记  [第三季] | 类型：剧情 喜剧][17.41 GB]</title>
<link>https://audiences.me/details.php?id=664467</link>
<guid isPermaLink="false">363e44ca3d863432e1a8d524156eb6ddbe3ff3e5</guid>
<pubDate>Thu, 14 May 2026 22:35:56 +0800</pubDate>
<source>audiences</source>
<enclosure url="https://audiences.me/download.php?id=664467" type="application/x-bittorrent" />
<description><![CDATA[<p><b>🔗 来源:</b> audiences</p>
<p><b>📅 发布时间:</b> Thu, 14 May 2026 22:35:56 +0800</p>
<p><b>⬇️ 详情:</b> <a href="https://audiences.me/details.php?id=664467">https://audiences.me/details.php?id=664467</a></p>]]></description>
</item>
</channel>
</rss>